<svg id="Graphic_Elements" data-name="Graphic Elements" xmlns="http://www.w3.org/2000/svg" viewBox="0 0 1200 1200"><g id="Warstwa_1"><g id="_121533352" data-name=" 121533352"><path id="_121532536" data-name=" 121532536" d="M517.57,883.84C506,872.9,494.83,856.47,497.16,845,587.83,917.82,652.31,930.1,704,911.68c69.37-24.74,105.74-125.26,171.39-168.18-7.3-8.62-15.09-25.73-12.93-39.34,26.12,37,55.14,60.88,98.53,59.25-2.36-15.78-1.73-30.07,19.91-33.84-3.49-21.29-18.72-38.59-36.31-55-24.89-23.16-54.43-49-110.67-34.76-56.72,14.32-127.09,49-172.2,20.38C633.5,642.32,612.62,606.3,598.5,569c-11.69-30.94-16.74-62.33-35.75-89.29C498.4,388.39,404.36,358.55,322,269.73c15.93,25.25,46.56,52.37,70.72,73,59.64,51,112.32,88,143.1,129.57,53.31,72,14.57,116.33,102.7,197.53C564.82,654,570.77,570.28,526.69,495.17c-23.53-40.1-60.08-69.77-86.15-90.36-41.4-32.71-86.9-60.9-118.33-94.9C253.09,235.13,201.75,157.7,162.73,78.62c-4.63,16.11-8.28,32.79,17.92,67.69-22.07,9.79-9.86,39.88,11.94,75.64-33.78-1.49-18.68,36.51,29.86,101.53-71.89-7,34.65,73.36,95.55,131.38-105.71-4.85-1.87,58.95,73.65,113.47-54.93,22.87-38,45.48,85.6,67.68-14.32,31.61,1.66,53.4,71.67,57.73-10.44,32.77,24.7,47,63.7,59.72-36.55,7-72.3-4.94-107.5-29.86-55.34,67.45-100.46,92.81-186.5,101.95-39.1,4.15-87.39,1.66-110.61,9-26.32,8.31-21,29.71,13.11,30.73,15.56.46,39.83-.2,75-2.32-9.31,3.45-39.69,12.67-58.15,26.56-27,20.32-28.48,64.48,11.37,35.24,19.1-14,40.29-29.29,63.71-30,8.34,1.91-96.62,76.26-49.71,102.62,17.7,10,34.6-26.94,60.93-49,21.82-18.31,36.28-25.23,51.48-23.69-26.34,31.89-50.52,57.17-56.11,77.81-14.75,54.52,36.23,66.5,43.62-.18,2.16-19.48,11.54-27.58,26.42-35.82-6.76,36.16-9.1,65.39-5.45,85.15,9.34,50.49,33.48,49.61,37.87,17.9,2.2-16-6.5-44.84,5.41-71.2,7,24.42,13.22,43.34,18.69,57.08,20.56,51.7,45.91,30.9,15.45-48.92-7.87-20.62-1.38-54.11,12.67-80.26,9.51-17.71,29.38-29.21,43.27-42.37ZM449,1089c35.73,46.65,62.58,30.11,52-16-5.7-24.81-17.6-61.38-14.48-96.44,3.23-36.4,22-59.65,45-83.29C597,942,656.21,953.86,709.4,938.12c68.39-20.26,93.45-100.65,175.8-178.07C911.31,779,938.88,790,971.64,773c3.77,8.32,15.71,9.63,28.82,9.94,15.43-33-2.38-48.58-7.49-67-5.78-20.85-14.45-37-24.35-49.56-41-52-100.88-67.14-192.72-34.5-9.81-48.1,34.14-54.77,43.53-88,12.17-43-11.95-100.72-10.09-151.6,1.55-42.17,4.1-87.35,30.15-120.09,29.39-26.28,36.52-41.93,33.78-51.37-8.66-29.83-69.26-9.88-83.84-.61C773,230.67,756.13,247,753,278.14c-35.14-13.85-57.34-3.93-60.61,40.74-32.85-20-42.74,13.69-39.75,77.5-43.48-20.32-38.91,23.09-32.79,68.56-41.62-27.76-25,23.26-7.93,85C594.89,509,583,463.57,549.53,429.16,494.9,373,416.71,331.4,348.7,270.38c-41.33-37.08-80.23-82.3-113.08-129.8-15-21.75-27.34-44.35-45.67-63.65-44.14-46.45-69.89-29.17-43.52,41.23-25.73,13.29-21.25,40.3,3.47,73.53-25,13.82-8.35,52.6,19.88,98.37-20.5,13.4-15.68,45.45,79.49,144.08-34.73,31.5,29.24,82.51,96.38,134.14-52.13,40.88,7.92,67.2,99.36,89.43q-25.44,25.85,44.72,47.69c-55,71-130.66,103.12-223.7,102.42-22.56-.16-39.5-1.33-61.08,8.22-43.72,19.36-58,60.42,4.57,70.21-19.28,23.68-26.54,70.39,24.84,76.51-9.47,57.83,20.18,62.83,56.64,58.62,10,65.44,50.43,76.05,73.53,45.71,45,59.66,85.31,78.92,84.46,21.86Zm389.5-853.54C821.58,256.76,810,275.18,800.39,298c-29.09,68.9-1.25,155.36-3.49,229.09-1.25,41.36-58.26,37.08-44.85,113.74-52.94,17.36-96.16,4.47-125.2-52.66,12.71-13.59,14.21-39.25-8.94-91.42,10.8,9.93,18,12.76,22.6,10.42,11.73-6-2.09-47.45.25-86.93,13.81,14.16,23.33,15.93,29.88,9.09,10.55-11-.59-52.21,13.84-84.61,4.83-5.72,18.61,14.24,25.86,6.14,9.85-11,1.23-34.43,13.75-44.8,13-10.81,29.75,12.78,40,6,27.26-18.06-1.25-73.86,74.39-76.62ZM931,680.57a12.6,12.6,0,1,1-12.57,12.59A12.58,12.58,0,0,1,931,680.57Zm52.65,68.59-.25-1.24c-.72-3.65-6,6.39-5,10s7.5,9.77,9.46,6.49c2.7-4.52-3.22-10.06-4.23-15.22Z" style="fill-rule:evenodd"/><path id="_121530064" data-name=" 121530064" d="M955.73,931.07q-.47-14-.17-27.08c-30.77,25.26-55.43,20.64-73.94-15.65C910,875.7,937.43,878,955.78,896.87a329.28,329.28,0,0,1,4.09-41.38c-29.48,13.17-57,10.54-81.74-14.54,28.23-18.74,56-18.89,83,7.69a188,188,0,0,1,13.48-43c-30.31,14.67-57.15,12-79-15.58,28.43-13.55,55.38-8,81.33,10.89,19-37.16,50.86-57.81,96.91-60.27,25.06-.17,19.26,20.61,3.49,20.45-33.4,3.23-59,15.93-77.08,37.8,33.5,12.69,41.13,43.43,30.78,79.43-29.92-19.72-41.07-43-38.57-68.75Q979.5,829.75,973.11,858c43.59,7.4,55.81,46.4,44.43,90.72-27.22-19.17-43.86-47-47.87-71.87a341.53,341.53,0,0,0-2.95,53.85c24.11,25.45,20.23,57.55-6.44,82.37-30.25-25.21-36.77-62.93-4.55-82Z" style="fill-rule:evenodd"/></g></g></svg>